<svg width="82" height="25" viewBox="0 0 82 25" fill="none" xmlns="http://www.w3.org/2000/svg">
<path d="M4.06468 0.525391V11.6268C4.06468 15.4292 4.72028 16.8715 5.98776 18.3139C7.47378 19.9747 9.7028 20.8925 12.1941 20.8925C14.6853 20.8925 16.9143 19.931 18.4003 18.3139C20.0175 16.4782 20.3234 14.6425 20.3234 11.6268V2.57959C20.3234 1.44322 21.2413 0.525391 22.3776 0.525391C23.514 0.525391 24.4318 1.44322 24.4318 2.57959V11.6268C24.4318 14.6862 24.2133 17.9642 21.4598 21.0236C19.2308 23.5149 15.8654 24.9572 12.2378 24.9572C8.61014 24.9572 5.24475 23.5149 3.01573 21.0236C0.218531 18.0079 0 14.7299 0 11.6705V0.525391H4.06468Z" fill="#333333"/>
<path d="M61.0991 0.525391V11.6268C61.0991 15.4292 61.7547 16.8715 63.0222 18.3139C64.5082 19.9747 66.7372 20.8925 69.2285 20.8925C71.7197 20.8925 73.9487 19.931 75.4348 18.3139C77.0519 16.4782 77.3578 14.6425 77.3578 11.6268V2.57959C77.3578 1.44322 78.2757 0.525391 79.412 0.525391C80.5484 0.525391 81.4662 1.44322 81.4662 2.57959V11.6268C81.4662 14.6862 81.2477 17.9642 78.4942 21.0236C76.2652 23.5149 72.8998 24.9572 69.2722 24.9572C65.6446 24.9572 62.2792 23.5149 60.0501 21.0236C57.2967 17.9642 57.0781 14.6862 57.0781 11.6268V0.525391H61.0991Z" fill="#333333"/>
<path d="M48.9062 24.4318V13.3304C48.9062 9.52797 48.2506 8.08566 46.9831 6.64336C45.4971 4.98252 43.2681 4.06469 40.7768 4.06469C38.2856 4.06469 36.0565 5.02622 34.5705 6.64336C32.9534 8.47902 32.6475 10.3147 32.6475 13.3304V22.3776C32.6475 23.514 31.7296 24.4318 30.5933 24.4318C29.4569 24.4318 28.5391 23.514 28.5391 22.3776V13.3304C28.5391 10.271 28.7576 6.99301 31.5111 3.93357C33.7401 1.44231 37.1055 0 40.7331 0C44.3607 0 47.7261 1.44231 49.9551 3.93357C52.7086 6.99301 52.9272 10.271 52.9272 13.3304V24.4318H48.9062Z" fill="#333333"/>
</svg>
