<svg xmlns="http://www.w3.org/2000/svg" xmlns:xlink="http://www.w3.org/1999/xlink" width="61.98" height="56.54" viewBox="0 0 61.98 56.54">
  <defs>
    <clipPath id="clip-path">
      <rect id="Rechteck_6" data-name="Rechteck 6" width="61.98" height="56.54" transform="translate(1 4)" fill="none" stroke="#000" stroke-width="1"/>
    </clipPath>
  </defs>
  <g id="deliver" transform="translate(-1 -4)" clip-path="url(#clip-path)">
    <path id="Pfad_16" data-name="Pfad 16" d="M2,34.31V7.78A2.79,2.79,0,0,1,4.78,5h28.5a2.78,2.78,0,0,1,2.78,2.78l.2,44.86h-15a6.91,6.91,0,0,0-13.81,0H2.2Z" fill="none" stroke="#000" stroke-width="1"/>
    <path id="Pfad_17" data-name="Pfad 17" d="M7.4,52.64a6.91,6.91,0,0,0,13.81,0" fill="none" stroke="#000" stroke-width="1"/>
    <path id="Pfad_18" data-name="Pfad 18" d="M44.119,52.64a6.9,6.9,0,1,0,13.8,0" fill="none" stroke="#000" stroke-width="1"/>
    <path id="Pfad_19" data-name="Pfad 19" d="M57.18,38.16l-8-12.41a4.54,4.54,0,0,0-3.8-2.07H36.26v29h7.86a6.9,6.9,0,0,1,13.8,0H62V47.72C61.69,44.12,62,40.92,57.18,38.16Z" fill="none" stroke="#000" stroke-width="1"/>
    <path id="Pfad_20" data-name="Pfad 20" d="M57.919,52.64a6.9,6.9,0,0,0-13.8,0" fill="none" stroke="#000" stroke-width="1"/>
    <path id="Pfad_21" data-name="Pfad 21" d="M51.67,37.25H42.42a2.24,2.24,0,0,1-2.36-2.08L40,27.82a1.17,1.17,0,0,1,1.23-1.11h2.15a4.67,4.67,0,0,1,3.8,1.84l5.15,7.67a.69.69,0,0,1-.66,1.03Z" fill="none" stroke="#000" stroke-width="1"/>
  </g>
</svg>
