<svg xmlns="http://www.w3.org/2000/svg" xmlns:xlink="http://www.w3.org/1999/xlink" width="29" height="30" viewBox="0 0 29 30">
  <defs>
    <clipPath id="clip-path">
      <rect id="Rechteck_12" data-name="Rechteck 12" width="29" height="30" transform="translate(1)" fill="#fff"/>
    </clipPath>
  </defs>
  <g id="sell" transform="translate(-1)" clip-path="url(#clip-path)">
    <path id="Pfad_22" data-name="Pfad 22" d="M19.818,22.688v5.983a1.413,1.413,0,0,1-.4.985,1.337,1.337,0,0,1-.958.408H3.355a1.337,1.337,0,0,1-.958-.408,1.413,1.413,0,0,1-.4-.985V2.422a1.413,1.413,0,0,1,.4-.985,1.337,1.337,0,0,1,.958-.408h15.1a1.323,1.323,0,0,1,.52.1,1.353,1.353,0,0,1,.441.3,1.4,1.4,0,0,1,.295.453,1.426,1.426,0,0,1,.1.534v6.06" transform="translate(-0.531 -0.546)" fill="rgba(0,0,0,0)" stroke="#000" stroke-width="1"/>
    <path id="Pfad_23" data-name="Pfad 23" d="M23.864,4.36a.409.409,0,0,0-.234.068.426.426,0,0,0-.158.19.44.44,0,0,0-.028.249.434.434,0,0,0,.112.222.414.414,0,0,0,.214.12.407.407,0,0,0,.242-.023.42.42,0,0,0,.189-.158.447.447,0,0,0,.041-.4.425.425,0,0,0-.088-.139.412.412,0,0,0-.133-.094A.4.4,0,0,0,23.864,4.36Z" transform="translate(-11.92 -2.316)" fill="#1c1c1c"/>
    <path id="Pfad_24" data-name="Pfad 24" d="M20.452,4.36a.409.409,0,0,0-.234.068.426.426,0,0,0-.158.19.441.441,0,0,0-.028.249.434.434,0,0,0,.112.222.414.414,0,0,0,.214.12.407.407,0,0,0,.242-.023.42.42,0,0,0,.189-.158.447.447,0,0,0,.041-.4.425.425,0,0,0-.088-.139.412.412,0,0,0-.133-.094A.4.4,0,0,0,20.452,4.36Z" transform="translate(-10.107 -2.316)" fill="#1c1c1c"/>
    <path id="Pfad_25" data-name="Pfad 25" d="M17.052,4.36a.409.409,0,0,0-.234.068.426.426,0,0,0-.158.19.44.44,0,0,0-.028.249.434.434,0,0,0,.112.222.414.414,0,0,0,.214.12.407.407,0,0,0,.242-.023.42.42,0,0,0,.189-.158.447.447,0,0,0,.041-.4.425.425,0,0,0-.088-.139.412.412,0,0,0-.133-.094A.4.4,0,0,0,17.052,4.36Z" transform="translate(-8.301 -2.316)" fill="#1c1c1c"/>
    <path id="Pfad_26" data-name="Pfad 26" d="M19.006,23.569v6.31a1.261,1.261,0,0,0,.354.875,1.193,1.193,0,0,0,.851.364H37.485a1.177,1.177,0,0,0,.464-.091,1.2,1.2,0,0,0,.394-.268,1.242,1.242,0,0,0,.264-.4,1.269,1.269,0,0,0,.093-.476V18.136a1.257,1.257,0,0,0-.353-.876,1.189,1.189,0,0,0-.852-.363H23.446" transform="translate(-9.566 -8.977)" fill="rgba(0,0,0,0)" stroke="#000" stroke-width="1"/>
    <path id="Pfad_27" data-name="Pfad 27" d="M47.946,37.134a1.256,1.256,0,0,0-.623-.479,1.219,1.219,0,0,0-.778-.008,1.254,1.254,0,0,0-.633.467,1.316,1.316,0,0,0,0,1.521,1.254,1.254,0,0,0,.633.467,1.219,1.219,0,0,0,.778-.008,1.256,1.256,0,0,0,.623-.479" transform="translate(-23.731 -19.437)" fill="rgba(0,0,0,0)" stroke="#000" stroke-width="1"/>
    <path id="Pfad_28" data-name="Pfad 28" d="M51.543,36.589a1.215,1.215,0,0,0-.574.144,1.254,1.254,0,0,0-.444.4,1.307,1.307,0,0,1,0,1.48,1.245,1.245,0,0,0,.443.4,1.206,1.206,0,0,0,.574.143,1.221,1.221,0,0,0,.5-.074,1.246,1.246,0,0,0,.432-.273,1.287,1.287,0,0,0,.291-.427,1.32,1.32,0,0,0,0-1.021,1.287,1.287,0,0,0-.291-.427,1.247,1.247,0,0,0-.432-.273,1.22,1.22,0,0,0-.5-.074Z" transform="translate(-26.31 -19.437)" fill="rgba(0,0,0,0)" stroke="#000" stroke-width="1"/>
    <path id="Pfad_29" data-name="Pfad 29" d="M16.131,21.469a4.36,4.36,0,1,0-4.239-4.358A4.3,4.3,0,0,0,16.131,21.469Z" transform="translate(-5.787 -6.775)" fill="rgba(0,0,0,0)" stroke="#000" stroke-width="1"/>
    <path id="Pfad_30" data-name="Pfad 30" d="M16.643,20.932l-1.36-1.446-.469.482L16.639,21.9l3.751-3.982-.469-.482Z" transform="translate(-7.339 -9.261)" fill="#141414"/>
    <path id="Pfad_31" data-name="Pfad 31" d="M24.3,36.592h4.928" transform="translate(-12.376 -19.439)" fill="rgba(0,0,0,0)" stroke="#000" stroke-width="1"/>
    <path id="Pfad_32" data-name="Pfad 32" d="M18.435,59.136h2.2" transform="translate(-9.263 -31.416)" fill="rgba(0,0,0,0)" stroke="#000" stroke-width="1"/>
    <path id="Pfad_33" data-name="Pfad 33" d="M24.3,41.7h8.464" transform="translate(-12.376 -22.155)" fill="rgba(0,0,0,0)" stroke="#000" stroke-width="1"/>
  </g>
</svg>
